<svg width="512" height="512" viewBox="0 0 512 512" fill="none" xmlns="http://www.w3.org/2000/svg">
  <defs>
    <linearGradient id="bg" x1="64" y1="48" x2="448" y2="464" gradientUnits="userSpaceOnUse">
      <stop stop-color="#2B0D09"/>
      <stop offset="0.5" stop-color="#7C2D12"/>
      <stop offset="1" stop-color="#F97316"/>
    </linearGradient>
    <radialGradient id="glow" cx="0" cy="0" r="1" gradientUnits="userSpaceOnUse" gradientTransform="translate(358 122) rotate(130.531) scale(284.397)">
      <stop stop-color="#FDBA74" stop-opacity="0.95"/>
      <stop offset="1" stop-color="#FDBA74" stop-opacity="0"/>
    </radialGradient>
  </defs>
  <rect width="512" height="512" rx="256" fill="url(#bg)"/>
  <rect width="512" height="512" rx="256" fill="url(#glow)"/>
  <circle cx="256" cy="256" r="196" stroke="rgba(255,255,255,0.18)" stroke-width="2"/>
  <path d="M157 315C157 259.772 201.772 215 257 215H307C320.255 215 331 225.745 331 239V239C331 252.255 320.255 263 307 263H257C228.833 263 206 285.833 206 314V314C206 342.167 228.833 365 257 365H312" stroke="white" stroke-width="28" stroke-linecap="round"/>
  <path d="M219 161L282 161" stroke="#FED7AA" stroke-width="24" stroke-linecap="round"/>
  <path d="M312 161L350 161" stroke="#FED7AA" stroke-width="24" stroke-linecap="round" opacity="0.75"/>
  <circle cx="187" cy="182" r="16" fill="#FFF7ED"/>
  <path d="M304 316C317.255 316 328 326.745 328 340V340C328 353.255 317.255 364 304 364H255" stroke="#FFF7ED" stroke-width="28" stroke-linecap="round"/>
  <path d="M167 397C221.308 434.029 292.311 441.821 355 409" stroke="#FFF7ED" stroke-opacity="0.7" stroke-width="16" stroke-linecap="round"/>
</svg>
